<svg width="34" height="32" viewBox="0 0 34 32" fill="none" xmlns="http://www.w3.org/2000/svg">
<g clip-path="url(#clip0_53_62)">
<path d="M0 16C0 24.837 7.61069 32 17 32C26.3893 32 34 24.837 34 16C34 7.164 26.3893 0 17 0C7.61069 0 0 7.163 0 16ZM31.909 16C31.909 23.72 25.2025 30 17 30C8.7975 30 2.125 23.72 2.125 16C2.125 8.28 8.7975 2 17 2C25.2025 2 31.909 8.28 31.909 16ZM15.9258 8.99V20.254L12.0827 16.637C11.6684 16.247 10.9948 16.247 10.5804 16.637C10.166 17.027 10.166 17.66 10.5804 18.051L17.0223 23.958L23.4642 18.051C23.6714 17.856 23.7756 17.6 23.7756 17.344C23.7756 17.088 23.6714 16.832 23.4642 16.637C23.0499 16.247 22.3773 16.247 21.9619 16.637L18.0519 20.317V8.991C18.0519 8.438 17.5759 7.991 16.9894 7.991C16.4029 7.991 15.9258 8.438 15.9258 8.991V8.99Z" fill="white"/>
</g>
<defs>
<clipPath id="clip0_53_62">
<rect width="34" height="32" fill="white"/>
</clipPath>
</defs>
</svg>
