<svg width="32" height="30" viewBox="0 0 32 30" fill="none" xmlns="http://www.w3.org/2000/svg">
<g clip-path="url(#clip0_48_131)">
<path d="M0 15C0 23.2847 7.163 30 16 30C24.837 30 32 23.2847 32 15C32 6.71625 24.837 0 16 0C7.163 0 0 6.71531 0 15ZM30.032 15C30.032 22.2375 23.72 28.125 16 28.125C8.28 28.125 2 22.2375 2 15C2 7.7625 8.28 1.875 16 1.875C23.72 1.875 30.032 7.7625 30.032 15ZM14.989 8.42812V18.9881L11.372 15.5972C10.982 15.2316 10.348 15.2316 9.958 15.5972C9.568 15.9628 9.568 16.5562 9.958 16.9228L16.021 22.4606L22.084 16.9228C22.279 16.74 22.377 16.5 22.377 16.26C22.377 16.02 22.279 15.78 22.084 15.5972C21.694 15.2316 21.061 15.2316 20.67 15.5972L16.99 19.0472V8.42906C16.99 7.91062 16.542 7.49156 15.99 7.49156C15.438 7.49156 14.989 7.91062 14.989 8.42906V8.42812Z" fill="#5F6C37"/>
</g>
<defs>
<clipPath id="clip0_48_131">
<rect width="32" height="30" fill="white"/>
</clipPath>
</defs>
</svg>
