<svg width="36" height="37" viewBox="0 0 36 37" fill="none" xmlns="http://www.w3.org/2000/svg">
<path d="M26.317 23.6838L26.7915 23.1533C27.5774 22.2743 29.0715 22.0918 30.1277 22.7459L32.6779 24.3254C33.734 24.9795 33.9534 26.223 33.1674 27.102L32.693 27.6325C31.907 28.5115 30.413 28.6941 29.3568 28.0399L26.8066 26.4604C25.7504 25.8056 25.5311 24.5628 26.317 23.6838Z" stroke="#F49A44" stroke-miterlimit="10" stroke-linecap="round" stroke-linejoin="round"/>
<path d="M30.9144 20.7588L29.41 22.4462" stroke="#F49A44" stroke-miterlimit="10" stroke-linecap="round" stroke-linejoin="round"/>
<path d="M34.7386 23.1289L33.2343 24.8163" stroke="#F49A44" stroke-miterlimit="10" stroke-linecap="round" stroke-linejoin="round"/>
<path d="M20.8225 22.6535C28.4215 14.2482 38.1089 5.45524 34.0368 2.1726C29.9107 -1.32499 15.0132 3.47891 6.08862 10.281C-3.20865 16.7702 2.7445 23.9922 4.45788 25.4361C6.4065 27.0368 13.6677 31.2064 20.8225 22.6535Z" stroke="#F49A44" stroke-miterlimit="10" stroke-linecap="round"/>
<path d="M25.5986 7.21143C17.7413 12.3824 10.6541 18.4668 4.70891 25.1538C2.38519 27.7671 2.76188 31.4148 5.52349 33.7139C7.28217 35.1776 9.66709 35.9998 12.1537 35.9998H12.1553C15.8435 35.9998 19.3808 34.7801 21.989 32.6093C23.9035 31.016 25.7535 29.369 27.5353 27.6718L28.0192 27.2108" stroke="#F49A44" stroke-miterlimit="10" stroke-linecap="round" stroke-linejoin="round"/>
<path d="M16.9668 8.52979C17.4039 9.82617 17.8465 11.1312 18.2995 12.45C19.9263 12.8528 21.5522 13.2517 23.1854 13.6525" stroke="#F49A44" stroke-miterlimit="10" stroke-linecap="round"/>
<path d="M10.7599 11.8403C11.735 13.2849 12.7244 14.7453 13.7321 16.2242C15.4796 17.0563 17.2137 17.8745 18.9398 18.6814" stroke="#F49A44" stroke-miterlimit="10" stroke-linecap="round"/>
<path d="M6.57166 16.832C7.32901 18.1053 8.10782 19.3983 8.91286 20.7133C10.4053 21.3456 11.8779 21.9587 13.3346 22.5566" stroke="#F49A44" stroke-miterlimit="10" stroke-linecap="round"/>
</svg>
