<svg width="28" height="29" viewBox="0 0 28 29" fill="none" xmlns="http://www.w3.org/2000/svg">
<path d="M12.4087 28.9136C8.3173 28.4339 4.63766 26.139 2.32752 22.6264C1.50855 21.3811 1.133 20.5749 0.577911 18.8714C0.146066 17.5458 0.0871706 17.1323 0.022645 14.9713C-0.0325836 13.1216 0.00857996 12.299 0.19752 11.4681C1.38154 6.26479 4.78784 2.37274 9.5949 0.731094C16.2652 -1.5471 23.5862 1.65402 26.6256 8.17807C27.6304 10.3345 28.0088 12.0943 27.9998 14.5685C27.9884 17.7486 27.2877 20.0683 25.5103 22.8115C22.7831 27.0204 17.4493 29.5045 12.4087 28.9136ZM16.7076 25.9102C19.0102 25.3838 21.6037 23.6025 23.1031 21.5174C24.6441 19.3743 25.3787 17.0862 25.3599 14.4878C25.3423 12.0653 24.7659 10.0181 23.5529 8.06932L23.068 7.29019L20.8422 9.58071L18.6164 11.8712L18.2648 11.0846C18.0715 10.6518 17.883 9.86249 17.8461 9.33082L17.7788 8.36391L19.2754 6.83609C20.0985 5.99582 20.7719 5.23432 20.7717 5.14394C20.7714 4.96752 19.8501 4.33846 18.7903 3.79109C16.6916 2.70745 13.3973 2.41358 11.0316 3.09895C7.11638 4.23358 4.15942 7.2462 3.03897 11.2424C2.51471 13.1122 2.47883 15.6729 2.95223 17.4342C3.31833 18.796 4.03393 20.4079 4.57778 21.0952L4.96022 21.5788L5.56466 20.9744L6.1691 20.3699L6.36572 21.1278C6.49763 21.6363 6.76241 22.0822 7.1701 22.4819C7.76599 23.0662 7.77193 23.0834 7.47486 23.3606C7.30824 23.5152 7.1719 23.7054 7.1719 23.7813C7.1719 24.0447 8.9418 25.0851 10.1862 25.5532C12.2545 26.3316 14.3605 26.4467 16.7076 25.9102ZM8.33722 21.2639C7.67672 20.5829 7.79783 20.0959 9.90755 14.9489L11.8616 10.1817V7.78222V5.38246H13.9719H16.0823V7.74863V10.115L16.8809 12.0597C17.3202 13.1294 18.206 15.2734 18.8495 16.8247C20.1813 20.035 20.2921 20.6831 19.6122 21.2861L19.1913 21.6592H13.9561H8.72092L8.33722 21.2639ZM11.147 20.1169C11.2821 19.9767 11.3942 19.6693 11.3961 19.432C11.3979 19.1952 11.5386 18.6841 11.7087 18.2976C12.1253 17.3513 12.1035 16.8899 11.6271 16.568C11.277 16.3312 11.1996 16.3288 10.8846 16.5439C10.5949 16.7444 10.1132 17.7527 9.59291 19.2505C9.46533 19.6179 10.0964 20.3678 10.533 20.3678C10.7356 20.3678 11.0119 20.2566 11.147 20.1169ZM12.7528 15.2932C13.1639 14.9962 13.4882 14.045 13.3591 13.5148C13.2088 12.8971 12.5222 12.8014 12.0763 13.336C11.5688 13.9443 11.4357 14.8169 11.7891 15.2195C12.122 15.5987 12.3096 15.6142 12.7528 15.2932Z" fill="#F49A44"/>
</svg>
