<svg width="33" height="28" viewBox="0 0 33 28" fill="none" xmlns="http://www.w3.org/2000/svg">
<path d="M25.9297 0C23.4929 0 21.2158 0.807703 19.3446 2.33576C17.6878 3.68869 16.4597 5.55938 15.9754 7.46818C15.4211 9.65268 15.8715 11.6265 17.1776 12.9291C16.7281 13.7991 16.3102 14.697 15.9793 15.568C15.6753 14.7346 15.2706 13.9883 14.8129 13.3232C15.4618 12.1868 15.5517 10.7984 15.0419 9.37561C14.5618 8.0359 13.5895 6.80059 12.304 5.89706C10.9174 4.92249 9.28478 4.40739 7.58268 4.40739C5.39854 4.40739 3.15792 5.2757 1.10312 6.91842L0 7.80039L1.31511 8.19421C3.48457 8.84382 5.21603 10.6873 6.74366 12.3138C8.30324 13.9744 9.7764 15.5428 11.483 15.5433C11.4833 15.5433 11.4835 15.5433 11.4838 15.5433C12.3236 15.5433 13.1262 15.1733 13.9297 14.4169C14.7007 15.6149 15.2491 17.0837 15.2491 18.8698V28H16.5536C16.5536 28 16.5548 19.1733 16.5548 18.6984C16.5548 17.551 17.1655 15.8597 18.2535 13.7463C19.0614 14.2272 19.8165 14.4619 20.5518 14.4619C22.9495 14.4619 24.5088 11.9333 26.1596 9.25626C27.6331 6.86673 29.3032 4.15836 31.7881 2.75575L33.0001 2.07163L31.7568 1.4594C29.79 0.49102 27.8295 0 25.9297 0ZM11.4838 14.1054C11.4837 14.1054 11.4835 14.1054 11.4833 14.1054C10.3037 14.105 9.07397 12.7956 7.65005 11.2796C6.30226 9.84455 4.80693 8.25237 2.93379 7.31584C4.45653 6.33912 6.01565 5.84522 7.58268 5.84522C10.7284 5.84522 13.1059 7.88695 13.8285 9.90372C14.0157 10.4261 14.2091 11.2909 13.8931 12.1564C12.7228 10.8469 11.4347 9.95203 10.6331 9.39523C10.3987 9.23233 10.1962 9.09171 10.061 8.98581L9.305 10.1576C9.46977 10.2868 9.68658 10.4374 9.93751 10.6116C10.7632 11.1853 12.0162 12.0559 13.0978 13.3092C12.5344 13.8438 12.0046 14.1054 11.4838 14.1054ZM25.0806 8.44799C23.5664 10.9034 22.2588 13.024 20.5517 13.024C20.051 13.024 19.5148 12.8545 18.9213 12.5089C18.9796 12.4055 19.0385 12.3015 19.0988 12.1963C20.3913 9.94405 21.7039 8.12038 21.717 8.10219L20.6962 7.20685C20.5844 7.36178 19.2072 9.28064 17.8658 11.6573C17.0768 10.7206 16.8439 9.38395 17.2318 7.85539C17.6396 6.24832 18.6926 4.6575 20.1212 3.49099C21.2681 2.55438 23.207 1.43776 25.9297 1.43776C27.2642 1.43776 28.6386 1.70944 30.03 2.24712C27.896 3.88229 26.4125 6.28808 25.0806 8.44799Z" fill="#F49A44"/>
</svg>
